<?xml version="1.0" encoding="utf-8"?>
<!-- Generator: Adobe Illustrator 27.5.0, SVG Export Plug-In . SVG Version: 6.00 Build 0)  -->
<svg version="1.1" id="visual" xmlns="http://www.w3.org/2000/svg" xmlns:xlink="http://www.w3.org/1999/xlink" x="0px" y="0px"
	 viewBox="0 0 960 540" style="enable-background:new 0 0 960 540;" xml:space="preserve">
<style type="text/css">
	.st0{fill:#27272A;}
	.st1{fill:#202126;}
	.st2{fill:#1C1D21;}
	.st3{fill:#7A300B;}
	.st4{fill:#17181C;}
</style>
<path class="st0" d="M0,104l87,54l88-33l87,6l87,32h87l88,5l87,6l87-38l87-32l88,21l87,22V0h-87h-88h-87h-87h-87h-88h-87h-87h-87H87
	H0V104z"/>
<path class="st1" d="M0,185l87,10l88,17l87,5l87-11l87,33l88-6l87-11l87-37l87-38l88,43h87v-45l-87-22l-88-21l-87,32l-87,38l-87-6
	l-88-5h-87l-87-32l-87-6l-88,33L0,102V185z"/>
<path class="st2" d="M0,228l87,21l88,38l87,22l87-6l87,33l88-38l87-16l87-22l87-5l88,32l87-32v-67h-87l-88-43l-87,38l-87,37l-87,11
	l-88,6l-87-33l-87,11l-87-5l-88-17L0,183V228z"/>
<path class="st3" d="M0,357l87,38l88-48l87,21l87,60l87,21l88-86l87,27l87-38l87,27l88-11l87,33V253l-87,32l-88-32l-87,5l-87,22
	l-87,16l-88,38l-87-33l-87,6l-87-22l-88-38L0,226V357z"/>
<path class="st4" d="M0,541h87h88h87h87h87h88h87h87h87h88h87V399l-87-33l-88,11l-87-27l-87,38l-87-27l-88,86l-87-21l-87-60l-87-21
	l-88,48L0,355V541z"/>
</svg>
