<?xml version="1.0" encoding="utf-8"?>
<!-- Generator: Adobe Illustrator 27.5.0, SVG Export Plug-In . SVG Version: 6.00 Build 0)  -->
<svg version="1.1" id="visual" xmlns="http://www.w3.org/2000/svg" xmlns:xlink="http://www.w3.org/1999/xlink" x="0px" y="0px"
	 viewBox="0 0 960 540" style="enable-background:new 0 0 960 540;" xml:space="preserve">
<style type="text/css">
	.st0{fill:#17181C;}
	.st1{fill:#7A300B;}
</style>
<rect x="-2" y="-2.1" class="st0" width="963" height="548"/>
<path class="st1" d="M-10.4,129c25.1,18.7,50.2,37.3,75.2,56c34.3,8.4,68.6,16.9,102.9,25.3c31.2-11.8,62.4-23.6,93.6-35.3
	c25.9,13.7,51.8,27.3,77.8,41c45.1,6.7,90.3,13.4,135.4,20.1c24.5-17.8,49.1-35.7,73.6-53.5c20.8,12.4,41.6,24.9,62.3,37.3
	c29.9-21.1,59.9-42.1,89.8-63.2c20.9-3.9,41.8-7.8,62.7-11.7c41.5,22.3,83.1,44.6,124.6,66.9c28.7,6.7,57.4,13.4,86.1,20.1
	c-3-28.3-5.9-56.7-8.9-85c-25.2,2.4-50.4,4.8-75.5,7.3c-34-16-68.1-32-102.1-48c-30.6,5.7-61.2,11.4-91.8,17.1
	c-28.3,16.4-56.5,32.8-84.8,49.3c-31.4-5.6-62.7-11.1-94.1-16.7c-24,9.2-47.9,18.4-71.9,27.6c-33.4-4.5-66.9-8.9-100.3-13.4
	c-29.3-12.8-58.7-25.5-88-38.3c-28.6,18.3-57.3,36.7-85.9,55c-30.6-9.8-61.2-19.6-91.8-29.4l-88.3-51.2
	C-10.1,113.7-10.3,121.4-10.4,129z"/>
<path class="st1" d="M472-51.6"/>
<path class="st1" d="M47.9,168.3c24.9,25.3,49.8,50.5,74.7,75.8c28.7,2.5,57.4,4.9,86.1,7.4c23-0.8,45.9-1.6,68.9-2.5
	c25,9.4,50,18.9,75.1,28.3c37.3,4.9,74.6,9.8,112,14.8c19.3-10.3,38.6-20.5,57.8-30.8c34,6.2,68.1,12.3,102.1,18.5
	c27.5-17.2,55-34.5,82.4-51.7c28.3-5.7,56.6-11.5,84.9-17.2c35.7,16.8,71.4,33.6,107,50.4c25-4.5,50-9,75.1-13.5
	c-2.1-3.7-4.3-7.5-6.4-11.2c-25.2,2.4-50.4,4.8-75.5,7.3c-34-16-68.1-32-102.1-48c-30.6,5.7-61.2,11.4-91.8,17.1
	c-28.3,16.4-56.5,32.8-84.8,49.3c-31.4-5.6-62.7-11.1-94.1-16.7c-24,9.2-47.9,18.4-71.9,27.6c-33.4-4.5-66.9-8.9-100.3-13.4
	c-22.3-8.9-44.5-17.8-66.8-26.7c-27.9,2.1-55.8,4.1-83.7,6.2c-20.1-1.6-40.2-3.3-60.3-4.9c-20.1-23.4-40.2-46.8-60.3-70.1
	C66.5,165.5,57.2,166.9,47.9,168.3z"/>
<path class="st1" d="M1067.5,283.5"/>
<path class="st1" d="M1031.6,35.3c-0.6,0-1.1,0.1-1.6,0.3c-28,13.7-56,27.4-84.1,41.1c-0.7,0.3-1.4,0.4-2.1,0.2
	c-31.2-7.9-62.3-15.7-93.5-23.6c-0.3-0.1-0.7-0.1-1.1-0.1c-30.5,2.9-61,5.8-91.4,8.8c-0.6,0.1-1.3,0.3-1.8,0.8l-83.3,73.8
	c-0.4,0.4-0.1,1.1-0.7,1.2c-1.5,0.3-2.3,1.5-3.8,1.8c1.6,11.4-0.9,4.3,0.7,15.6l0,0c0.6-0.1,1.3-0.3,1.7-0.8l87.5-76.7
	c0.5-0.4,1.1-0.7,1.8-0.8c28.3-2.2,56.5-4.5,84.8-6.7c0.4,0,0.7,0,1.1,0.1c30.6,8.8,61.2,17.6,91.8,26.5c0.7,0.2,1.5,0.1,2.2-0.2
	c30.3-15,60.7-29.9,91-44.9c0.6-0.3,1.3-0.4,2-0.3"/>
<path class="st1" d="M627.7,270.9c12.2,9.1,24.5,18.2,36.7,27.3c0.4,0.3,0.8,0.4,1.3,0.5c27.3,1.1,54.6,2.3,81.9,3.4
	c0.2,0,0.4,0,0.5,0c19.1-3.4,38.2-6.8,57.2-10.3c0.3-0.1,0.6,0,0.9,0l49,10c0.1,0,0.2,0,0.3,0c20.8,1.8,41.5,3.5,62.3,5.3
	c0.6,0,1.1-0.1,1.6-0.4c18.8-13.7,37.6-27.4,56.4-41.1c1.5-1.1,1.1-3.2-0.6-3.8c-3.7-1.2-7.5-2.4-11.2-3.7c-0.8-0.2-1.6-0.1-2.2,0.4
	c-17,13.2-33.9,26.5-50.9,39.7c-0.5,0.4-1.1,0.5-1.7,0.5c-14.4-1.3-28.8-2.6-43.2-3.8c-0.1,0-0.2,0-0.3-0.1
	c-19.7-4.7-39.4-9.5-59.1-14.2c-0.3-0.1-0.7-0.1-1,0c-17,3.4-34,6.8-51,10.1c-0.2,0-0.4,0.1-0.6,0c-24.5-1-49-2-73.5-2.9
	c-0.4,0-0.8-0.1-1.1-0.3c-15.8-9.1-31.7-18.1-47.5-27.2"/>
<path class="st1" d="M600.1,297.1"/>
<path class="st1" d="M1032.3,360.6"/>
<path class="st1" d="M1018.1,380.6"/>
<path class="st1" d="M1071.2,240.2"/>
<path class="st1" d="M71.8,137.3"/>
</svg>
